<?xml version="1.0" encoding="UTF-8" standalone="no"?>
<svg
   xmlns:dc="http://purl.org/dc/elements/1.1/"
   xmlns:cc="http://creativecommons.org/ns#"
   xmlns:rdf="http://www.w3.org/1999/02/22-rdf-syntax-ns#"
   xmlns:svg="http://www.w3.org/2000/svg"
   xmlns="http://www.w3.org/2000/svg"
   xmlns:sodipodi="http://sodipodi.sourceforge.net/DTD/sodipodi-0.dtd"
   xmlns:inkscape="http://www.inkscape.org/namespaces/inkscape"
   height="242"
   viewBox="0 0 1311 242"
   width="1311"
   version="1.1"
   id="svg94"
   sodipodi:docname="metamask-logo-horizontal.svg"
   inkscape:version="0.92.3 (2405546, 2018-03-11)">
  <metadata
     id="metadata100">
    <rdf:RDF>
      <cc:Work
         rdf:about="">
        <dc:format>image/svg+xml</dc:format>
        <dc:type
           rdf:resource="http://purl.org/dc/dcmitype/StillImage" />
      </cc:Work>
    </rdf:RDF>
  </metadata>
  <defs
     id="defs98">
    <filter
       style="color-interpolation-filters:sRGB;"
       inkscape:label="Colorize"
       id="filter180">
      <feComposite
         in2="SourceGraphic"
         operator="arithmetic"
         k1="0"
         k2="1"
         result="composite1"
         id="feComposite166" />
      <feColorMatrix
         in="composite1"
         values="1"
         type="saturate"
         result="colormatrix1"
         id="feColorMatrix168" />
      <feFlood
         flood-opacity="1"
         flood-color="rgb(31,0,139)"
         result="flood1"
         id="feFlood170" />
      <feBlend
         in="flood1"
         in2="colormatrix1"
         mode="multiply"
         result="blend1"
         id="feBlend172" />
      <feBlend
         in2="blend1"
         mode="screen"
         result="blend2"
         id="feBlend174" />
      <feColorMatrix
         in="blend2"
         values="1"
         type="saturate"
         result="colormatrix2"
         id="feColorMatrix176" />
      <feComposite
         in="colormatrix2"
         in2="SourceGraphic"
         operator="in"
         k2="1"
         result="composite2"
         id="feComposite178" />
    </filter>
  </defs>
  <sodipodi:namedview
     pagecolor="#ffffff"
     bordercolor="#666666"
     borderopacity="1"
     objecttolerance="10"
     gridtolerance="10"
     guidetolerance="10"
     inkscape:pageopacity="0"
     inkscape:pageshadow="2"
     inkscape:window-width="1048"
     inkscape:window-height="480"
     id="namedview96"
     showgrid="false"
     inkscape:zoom="0.30420154"
     inkscape:cx="528.86731"
     inkscape:cy="253.04187"
     inkscape:window-x="474"
     inkscape:window-y="212"
     inkscape:window-maximized="0"
     inkscape:current-layer="svg94" />
  <g
     fill="none"
     id="g92"
     style="filter:url(#filter180)">
    <g
       fill="#161616"
       transform="translate(361 61)"
       id="g18">
      <path
         d="m796.7 60.9c-6.8-4.5-14.3-7.7-21.4-11.7-4.6-2.6-9.5-4.9-13.5-8.2-6.8-5.6-5.4-16.6 1.7-21.4 10.2-6.8 27.1-3 28.9 10.9 0 .3.3.5.6.5h15.4c.4 0 .7-.3.6-.7-.8-9.6-4.5-17.6-11.3-22.7-6.5-4.9-13.9-7.5-21.8-7.5-40.7 0-44.4 43.1-22.5 56.7 2.5 1.6 24 12.4 31.6 17.1s10 13.3 6.7 20.1c-3 6.2-10.8 10.5-18.6 10-8.5-.5-15.1-5.1-17.4-12.3-.4-1.3-.6-3.8-.6-4.9 0-.3-.3-.6-.6-.6h-16.7c-.3 0-.6.3-.6.6 0 12.1 3 18.8 11.2 24.9 7.7 5.8 16.1 8.2 24.8 8.2 22.8 0 34.6-12.9 37-26.3 2.1-13.1-1.8-24.9-13.5-32.7z"
         id="path2" />
      <path
         d="m71.6 2.3h-7.4-8.1c-.3 0-.5.2-.6.4l-13.7 45.2c-.2.6-1 .6-1.2 0l-13.7-45.2c-.1-.3-.3-.4-.6-.4h-8.1-7.4-10c-.3 0-.6.3-.6.6v115.4c0 .3.3.6.6.6h16.7c.3 0 .6-.3.6-.6v-87.7c0-.7 1-.8 1.2-.2l13.8 45.5 1 3.2c.1.3.3.4.6.4h12.8c.3 0 .5-.2.6-.4l1-3.2 13.8-45.5c.2-.7 1.2-.5 1.2.2v87.7c0 .3.3.6.6.6h16.7c.3 0 .6-.3.6-.6v-115.4c0-.3-.3-.6-.6-.6z"
         id="path4" />
      <path
         d="m541 2.3c-.3 0-.5.2-.6.4l-13.7 45.2c-.2.6-1 .6-1.2 0l-13.7-45.2c-.1-.3-.3-.4-.6-.4h-25.4c-.3 0-.6.3-.6.6v115.4c0 .3.3.6.6.6h16.7c.3 0 .6-.3.6-.6v-87.7c0-.7 1-.8 1.2-.2l13.8 45.5 1 3.2c.1.3.3.4.6.4h12.8c.3 0 .5-.2.6-.4l1-3.2 13.8-45.5c.2-.7 1.2-.5 1.2.2v87.7c0 .3.3.6.6.6h16.7c.3 0 .6-.3.6-.6v-115.4c0-.3-.3-.6-.6-.6z"
         id="path6" />
      <path
         d="m325.6 2.3h-31.1-16.7-31.1c-.3 0-.6.3-.6.6v14.4c0 .3.3.6.6.6h30.5v100.4c0 .3.3.6.6.6h16.7c.3 0 .6-.3.6-.6v-100.4h30.5c.3 0 .6-.3.6-.6v-14.4c0-.3-.2-.6-.6-.6z"
         id="path8" />
      <path
         d="m424.1 118.9h15.2c.4 0 .7-.4.6-.8l-31.4-115.8c-.1-.3-.3-.4-.6-.4h-5.8-10.2-5.8c-.3 0-.5.2-.6.4l-31.4 115.8c-.1.4.2.8.6.8h15.2c.3 0 .5-.2.6-.4l9.1-33.7c.1-.3.3-.4.6-.4h33.6c.3 0 .5.2.6.4l9.1 33.7c.1.2.4.4.6.4zm-39.9-51 12.2-45.1c.2-.6 1-.6 1.2 0l12.2 45.1c.1.4-.2.8-.6.8h-24.4c-.4 0-.7-.4-.6-.8z"
         id="path10" />
      <path
         d="m683.3 118.9h15.2c.4 0 .7-.4.6-.8l-31.4-115.8c-.1-.3-.3-.4-.6-.4h-5.8-10.2-5.8c-.3 0-.5.2-.6.4l-31.4 115.8c-.1.4.2.8.6.8h15.2c.3 0 .5-.2.6-.4l9.1-33.7c.1-.3.3-.4.6-.4h33.6c.3 0 .5.2.6.4l9.1 33.7c.1.2.3.4.6.4zm-39.9-51 12.2-45.1c.2-.6 1-.6 1.2 0l12.2 45.1c.1.4-.2.8-.6.8h-24.4c-.4 0-.7-.4-.6-.8z"
         id="path12" />
      <path
         d="m149.8 101.8v-35.8c0-.3.3-.6.6-.6h44.5c.3 0 .6-.3.6-.6v-14.4c0-.3-.3-.6-.6-.6h-44.5c-.3 0-.6-.3-.6-.6v-30.6c0-.3.3-.6.6-.6h50.6c.3 0 .6-.3.6-.6v-14.4c0-.3-.3-.6-.6-.6h-51.2-17.3c-.3 0-.6.3-.6.6v15 31.9 15.6 37 15.8c0 .3.3.6.6.6h17.3 53.3c.3 0 .6-.3.6-.6v-15.2c0-.3-.3-.6-.6-.6h-52.8c-.3-.1-.5-.3-.5-.7z"
         id="path14" />
      <path
         d="m949.3 117.9-57.8-59.7c-.2-.2-.2-.6 0-.8l52-54c.4-.4.1-1-.4-1h-21.3c-.2 0-.3.1-.4.2l-44.1 45.8c-.4.4-1 .1-1-.4v-45c0-.3-.3-.6-.6-.6h-16.7c-.3 0-.6.3-.6.6v115.4c0 .3.3.6.6.6h16.7c.3 0 .6-.3.6-.6v-50.8c0-.5.7-.8 1-.4l50 51.6c.1.1.3.2.4.2h21.3c.4-.1.7-.8.3-1.1z"
         id="path16" />
    </g>
    <g
       stroke-linecap="round"
       stroke-linejoin="round"
       transform="translate(1 1)"
       id="g90">
      <path
         d="m246.1.2-101.1 75 18.8-44.2z"
         fill="#e17726"
         stroke="#e17726"
         id="path20" />
      <g
         fill="#e27625"
         stroke="#e27625"
         transform="translate(2)"
         id="g36">
        <path
           d="m10.9.2 100.2 75.7-17.9-44.9z"
           id="path22" />
        <path
           d="m207.7 174.1-26.9 41.2 57.6 15.9 16.5-56.2z"
           id="path24" />
        <path
           d="m.2 175 16.4 56.2 57.5-15.9-26.8-41.2z"
           id="path26" />
        <path
           d="m71 104.5-16 24.2 57 2.6-1.9-61.5z"
           id="path28" />
        <path
           d="m184 104.5-39.7-35.4-1.3 62.2 57-2.6z"
           id="path30" />
        <path
           d="m74.1 215.3 34.5-16.7-29.7-23.2z"
           id="path32" />
        <path
           d="m146.4 198.6 34.4 16.7-4.7-39.9z"
           id="path34" />
      </g>
      <g
         fill="#d5bfb2"
         stroke="#d5bfb2"
         transform="translate(76 198)"
         id="g42">
        <path
           d="m106.8 17.3-34.4-16.7 2.8 22.4-.3 9.5z"
           id="path38" />
        <path
           d="m.1 17.3 32 15.2-.2-9.5 2.7-22.4z"
           id="path40" />
      </g>
      <path
         d="m108.7 160.6-28.6-8.4 20.2-9.3z"
         fill="#233447"
         stroke="#233447"
         id="path44" />
      <path
         d="m150.3 160.6 8.4-17.7 20.3 9.3z"
         fill="#233447"
         stroke="#233447"
         id="path46" />
      <g
         fill="#cc6228"
         stroke="#cc6228"
         transform="translate(49 128)"
         id="g56">
        <path
           d="m27.1 87.3 5-41.2-31.8.9z"
           id="path48" />
        <path
           d="m128.9 46.1 4.9 41.2 26.9-40.3z"
           id="path50" />
        <path
           d="m153 .7-57 2.6 5.3 29.3 8.4-17.7 20.3 9.3z"
           id="path52" />
        <path
           d="m31.1 24.2 20.2-9.3 8.4 17.7 5.3-29.3-57-2.6z"
           id="path54" />
      </g>
      <g
         fill="#e27525"
         stroke="#e27525"
         transform="translate(57 128)"
         id="g66">
        <path
           d="m0 .7 23.9 46.7-.8-23.2z"
           id="path58" />
        <path
           d="m122 24.2-.9 23.2 23.9-46.7z"
           id="path60" />
        <path
           d="m57 3.3-5.3 29.3 6.7 34.6 1.5-45.6z"
           id="path62" />
        <path
           d="m88 3.3-2.8 18.2 1.4 45.7 6.7-34.6z"
           id="path64" />
      </g>
      <path
         d="m150.3 160.6-6.7 34.6 4.8 3.4 29.7-23.2.9-23.2z"
         fill="#f5841f"
         stroke="#f5841f"
         id="path68" />
      <path
         d="m80.1 152.2.8 23.2 29.7 23.2 4.8-3.4-6.7-34.6z"
         fill="#f5841f"
         stroke="#f5841f"
         id="path70" />
      <path
         d="m150.9 230.5.3-9.5-2.6-2.2h-38.2l-2.5 2.2.2 9.5-32-15.2 11.2 9.2 22.7 15.7h38.9l22.8-15.7 11.1-9.2z"
         fill="#c0ac9d"
         stroke="#c0ac9d"
         id="path72" />
      <path
         d="m148.4 198.6-4.8-3.4h-28.2l-4.8 3.4-2.7 22.4 2.5-2.2h38.2l2.6 2.2z"
         fill="#161616"
         stroke="#161616"
         id="path74" />
      <g
         fill="#763e1a"
         stroke="#763e1a"
         id="g80">
        <path
           d="m250.4 80.1 8.5-41.4-12.8-38.5-97.7 72.5 37.6 31.8 53.1 15.5 11.7-13.7-5.1-3.7 8.1-7.4-6.2-4.8 8.1-6.2z"
           id="path76" />
        <path
           d="m.1 38.7 8.6 41.4-5.5 4.1 8.2 6.2-6.2 4.8 8.1 7.4-5.1 3.7 11.7 13.7 53.1-15.5 37.6-31.8-97.7-72.5z"
           id="path78" />
      </g>
      <g
         fill="#f5841f"
         stroke="#f5841f"
         id="g88">
        <path
           d="m239.1 120-53.1-15.5 16 24.2-23.9 46.7 31.6-.4h47.2z"
           id="path82" />
        <path
           d="m73 104.5-53.1 15.5-17.7 55h47.1l31.6.4-23.9-46.7z"
           id="path84" />
        <path
           d="m145 131.3 3.4-58.6 15.4-41.7h-68.6l15.4 41.7 3.4 58.6 1.3 18.4.1 45.5h28.2l.1-45.5z"
           id="path86" />
      </g>
    </g>
  </g>
</svg>
